{"asset":{"generator":"Khronos glTF Blender I/O v4.5.47","version":"2.0"},"scene":0,"scenes":[{"name":"Scene","nodes":[0]}],"nodes":[{"extras":{"pivot":"bottom-center","family":"Paths","notes":"8m constant-width curve; rotate and translate using port centers/tangents. Quarter-turn footprint is 10x10m to retain a readable inner bend.","ports_json":"[{\"center\": [1.0, -5.0, 0], \"outward\": [0, -1, 0], \"width\": 8}, {\"center\": [-5.0, 1.0, 0], \"outward\": [-1.0, 6.123233995736766e-17, 0], \"width\": 8}]"},"mesh":0,"name":"SM_RC_Terrain_Path_Curve90_8m","rotation":[0.7071068286895752,0,0,0.7071068286895752]}],"materials":[{"doubleSided":true,"extras":{"darkangel_key":"material/trim"},"name":"RoyalDistrict_Trim","pbrMetallicRoughness":{"baseColorTexture":{"index":0},"metallicFactor":0,"roughnessFactor":0.8999999761581421}}],"meshes":[{"extras":{"darkangel_key":"mesh/0"},"name":"SM_RC_Terrain_Path_Curve90_8m","primitives":[{"attributes":{"POSITION":0,"NORMAL":1,"TEXCOORD_0":2},"indices":3,"material":0}]}],"textures":[{"sampler":0,"source":0}],"images":[{"uri":"terrain-trim.jpg"}],"accessors":[{"bufferView":0,"componentType":5126,"count":72,"max":[5,5,0],"min":[-5,-5,-0.05000000074505806],"type":"VEC3"},{"bufferView":1,"componentType":5126,"count":72,"type":"VEC3"},{"bufferView":2,"componentType":5126,"count":72,"type":"VEC2"},{"bufferView":3,"componentType":5123,"count":132,"type":"SCALAR"}],"bufferViews":[{"buffer":0,"byteLength":864,"byteOffset":0,"target":34962},{"buffer":0,"byteLength":864,"byteOffset":864,"target":34962},{"buffer":0,"byteLength":576,"byteOffset":1728,"target":34962},{"buffer":0,"byteLength":264,"byteOffset":2304,"target":34963}],"samplers":[{"magFilter":9729,"minFilter":9987}],"buffers":[{"byteLength":2568,"uri":"SM_RC_Terrain_Path_Curve90_8m.bin"}]}
