{"asset":{"generator":"Khronos glTF Blender I/O v4.5.47","version":"2.0"},"scene":0,"scenes":[{"name":"Scene","nodes":[0]}],"nodes":[{"extras":{"pivot":"upper footprint center, walking datum Z=0","family":"IslandEdges","notes":"","ports_json":"[]"},"mesh":0,"name":"SM_RC_Terrain_IslandEdge_Straight_16m","rotation":[0.7071068286895752,0,0,0.7071068286895752]}],"materials":[{"doubleSided":true,"extras":{"darkangel_key":"material/trim"},"name":"RoyalDistrict_Trim","pbrMetallicRoughness":{"baseColorTexture":{"index":0},"metallicFactor":0,"roughnessFactor":0.8999999761581421}}],"meshes":[{"extras":{"darkangel_key":"mesh/0"},"name":"SM_RC_Terrain_IslandEdge_Straight_16m","primitives":[{"attributes":{"POSITION":0,"NORMAL":1,"TEXCOORD_0":2},"indices":3,"material":0}]}],"textures":[{"sampler":0,"source":0}],"images":[{"uri":"terrain-trim.jpg"}],"accessors":[{"bufferView":0,"componentType":5126,"count":236,"max":[8,4.074619770050049,8],"min":[-8,-4,0],"type":"VEC3"},{"bufferView":1,"componentType":5126,"count":236,"type":"VEC3"},{"bufferView":2,"componentType":5126,"count":236,"type":"VEC2"},{"bufferView":3,"componentType":5123,"count":300,"type":"SCALAR"}],"bufferViews":[{"buffer":0,"byteLength":2832,"byteOffset":0,"target":34962},{"buffer":0,"byteLength":2832,"byteOffset":2832,"target":34962},{"buffer":0,"byteLength":1888,"byteOffset":5664,"target":34962},{"buffer":0,"byteLength":600,"byteOffset":7552,"target":34963}],"samplers":[{"magFilter":9729,"minFilter":9987}],"buffers":[{"byteLength":8152,"uri":"SM_RC_Terrain_IslandEdge_Straight_16m.bin"}]}
