{"asset":{"generator":"Khronos glTF Blender I/O v4.5.47","version":"2.0"},"scene":0,"scenes":[{"name":"Scene","nodes":[0]}],"nodes":[{"extras":{"pivot":"bottom-center","family":"Plateaus","notes":"","ports_json":"[]"},"mesh":0,"name":"SM_RC_Terrain_Plateau_16x16x2","rotation":[0.7071068286895752,0,0,0.7071068286895752]}],"materials":[{"doubleSided":true,"extras":{"darkangel_key":"material/trim"},"name":"RoyalDistrict_Trim","pbrMetallicRoughness":{"baseColorTexture":{"index":0},"metallicFactor":0,"roughnessFactor":0.8999999761581421}}],"meshes":[{"extras":{"darkangel_key":"mesh/0"},"name":"SM_RC_Terrain_Plateau_16x16x2","primitives":[{"attributes":{"POSITION":0,"NORMAL":1,"TEXCOORD_0":2},"indices":3,"material":0}]}],"textures":[{"sampler":0,"source":0}],"images":[{"uri":"terrain-trim.jpg"}],"accessors":[{"bufferView":0,"componentType":5126,"count":800,"max":[8.246419906616211,8.076860427856445,0],"min":[-8.265410423278809,-8.203949928283691,-2],"type":"VEC3"},{"bufferView":1,"componentType":5126,"count":800,"type":"VEC3"},{"bufferView":2,"componentType":5126,"count":800,"type":"VEC2"},{"bufferView":3,"componentType":5123,"count":948,"type":"SCALAR"}],"bufferViews":[{"buffer":0,"byteLength":9600,"byteOffset":0,"target":34962},{"buffer":0,"byteLength":9600,"byteOffset":9600,"target":34962},{"buffer":0,"byteLength":6400,"byteOffset":19200,"target":34962},{"buffer":0,"byteLength":1896,"byteOffset":25600,"target":34963}],"samplers":[{"magFilter":9729,"minFilter":9987}],"buffers":[{"byteLength":27496,"uri":"SM_RC_Terrain_Plateau_16x16x2.bin"}]}
