{"asset":{"generator":"Khronos glTF Blender I/O v4.5.47","version":"2.0"},"scene":0,"scenes":[{"name":"Scene","nodes":[0]}],"nodes":[{"extras":{"pivot":"upper footprint center, walking datum Z=0","family":"IslandEdges","notes":"","ports_json":"[]"},"mesh":0,"name":"SM_RC_Terrain_IslandEdge_16x16_Large","rotation":[0.7071068286895752,0,0,0.7071068286895752]}],"materials":[{"doubleSided":true,"extras":{"darkangel_key":"material/trim"},"name":"RoyalDistrict_Trim","pbrMetallicRoughness":{"baseColorTexture":{"index":0},"metallicFactor":0,"roughnessFactor":0.8999999761581421}}],"meshes":[{"extras":{"darkangel_key":"mesh/0"},"name":"SM_RC_Terrain_IslandEdge_16x16_Large","primitives":[{"attributes":{"POSITION":0,"NORMAL":1,"TEXCOORD_0":2},"indices":3,"material":0}]}],"textures":[{"sampler":0,"source":0}],"images":[{"uri":"terrain-trim.jpg"}],"accessors":[{"bufferView":0,"componentType":5126,"count":276,"max":[8,8,8],"min":[-8,-8,0],"type":"VEC3"},{"bufferView":1,"componentType":5126,"count":276,"type":"VEC3"},{"bufferView":2,"componentType":5126,"count":276,"type":"VEC2"},{"bufferView":3,"componentType":5123,"count":348,"type":"SCALAR"}],"bufferViews":[{"buffer":0,"byteLength":3312,"byteOffset":0,"target":34962},{"buffer":0,"byteLength":3312,"byteOffset":3312,"target":34962},{"buffer":0,"byteLength":2208,"byteOffset":6624,"target":34962},{"buffer":0,"byteLength":696,"byteOffset":8832,"target":34963}],"samplers":[{"magFilter":9729,"minFilter":9987}],"buffers":[{"byteLength":9528,"uri":"SM_RC_Terrain_IslandEdge_16x16_Large.bin"}]}
