{"asset":{"generator":"Khronos glTF Blender I/O v4.5.47","version":"2.0"},"scene":0,"scenes":[{"name":"Scene","nodes":[0]}],"nodes":[{"extras":{"pivot":"bottom-center","family":"Cliffs","notes":"Transition wedge; terminal height profile is identical at X=-4 and X=4.","ports_json":"[]"},"mesh":0,"name":"SM_RC_Terrain_CliffTopTransition_8x4","rotation":[0.7071068286895752,0,0,0.7071068286895752]}],"materials":[{"doubleSided":true,"extras":{"darkangel_key":"material/trim"},"name":"RoyalDistrict_Trim","pbrMetallicRoughness":{"baseColorTexture":{"index":0},"metallicFactor":0,"roughnessFactor":0.8999999761581421}}],"meshes":[{"extras":{"darkangel_key":"mesh/0"},"name":"SM_RC_Terrain_CliffTopTransition_8x4","primitives":[{"attributes":{"POSITION":0,"NORMAL":1,"TEXCOORD_0":2},"indices":3,"material":0}]}],"textures":[{"sampler":0,"source":0}],"images":[{"uri":"terrain-trim.jpg"}],"accessors":[{"bufferView":0,"componentType":5126,"count":50,"max":[4,2.180000066757202,0],"min":[-4,-2,-0.550000011920929],"type":"VEC3"},{"bufferView":1,"componentType":5126,"count":50,"type":"VEC3"},{"bufferView":2,"componentType":5126,"count":50,"type":"VEC2"},{"bufferView":3,"componentType":5123,"count":72,"type":"SCALAR"}],"bufferViews":[{"buffer":0,"byteLength":600,"byteOffset":0,"target":34962},{"buffer":0,"byteLength":600,"byteOffset":600,"target":34962},{"buffer":0,"byteLength":400,"byteOffset":1200,"target":34962},{"buffer":0,"byteLength":144,"byteOffset":1600,"target":34963}],"samplers":[{"magFilter":9729,"minFilter":9987}],"buffers":[{"byteLength":1744,"uri":"SM_RC_Terrain_CliffTopTransition_8x4.bin"}]}
