{"asset":{"generator":"Khronos glTF Blender I/O v4.5.47","version":"2.0"},"scene":0,"scenes":[{"name":"Scene","nodes":[0]}],"nodes":[{"extras":{"pivot":"bottom-center","family":"Plateaus","notes":"","ports_json":"[]"},"mesh":0,"name":"SM_RC_Terrain_Plateau_32x32x8","rotation":[0.7071068286895752,0,0,0.7071068286895752]}],"materials":[{"doubleSided":true,"extras":{"darkangel_key":"material/trim"},"name":"RoyalDistrict_Trim","pbrMetallicRoughness":{"baseColorTexture":{"index":0},"metallicFactor":0,"roughnessFactor":0.8999999761581421}}],"meshes":[{"extras":{"darkangel_key":"mesh/0"},"name":"SM_RC_Terrain_Plateau_32x32x8","primitives":[{"attributes":{"POSITION":0,"NORMAL":1,"TEXCOORD_0":2},"indices":3,"material":0}]}],"textures":[{"sampler":0,"source":0}],"images":[{"uri":"terrain-trim.jpg"}],"accessors":[{"bufferView":0,"componentType":5126,"count":1680,"max":[16.273420333862305,16.257190704345703,0],"min":[-16.255020141601562,-16.26712989807129,-8],"type":"VEC3"},{"bufferView":1,"componentType":5126,"count":1680,"type":"VEC3"},{"bufferView":2,"componentType":5126,"count":1680,"type":"VEC2"},{"bufferView":3,"componentType":5123,"count":2004,"type":"SCALAR"}],"bufferViews":[{"buffer":0,"byteLength":20160,"byteOffset":0,"target":34962},{"buffer":0,"byteLength":20160,"byteOffset":20160,"target":34962},{"buffer":0,"byteLength":13440,"byteOffset":40320,"target":34962},{"buffer":0,"byteLength":4008,"byteOffset":53760,"target":34963}],"samplers":[{"magFilter":9729,"minFilter":9987}],"buffers":[{"byteLength":57768,"uri":"SM_RC_Terrain_Plateau_32x32x8.bin"}]}
