{"asset":{"generator":"Khronos glTF Blender I/O v4.5.47","version":"2.0"},"scene":0,"scenes":[{"name":"Scene","nodes":[0]}],"nodes":[{"extras":{"pivot":"bottom-front-center","family":"Paths","notes":"Underside exactly equals matching slope top; walking face offset +0.05m.","ports_json":"[]"},"mesh":0,"name":"SM_RC_Terrain_Path_Uphill_8x8x4","rotation":[0.7071068286895752,0,0,0.7071068286895752]}],"materials":[{"doubleSided":true,"extras":{"darkangel_key":"material/trim"},"name":"RoyalDistrict_Trim","pbrMetallicRoughness":{"baseColorTexture":{"index":0},"metallicFactor":0,"roughnessFactor":0.8999999761581421}}],"meshes":[{"extras":{"darkangel_key":"mesh/0"},"name":"SM_RC_Terrain_Path_Uphill_8x8x4","primitives":[{"attributes":{"POSITION":0,"NORMAL":1,"TEXCOORD_0":2},"indices":3,"material":0}]}],"textures":[{"sampler":0,"source":0}],"images":[{"uri":"terrain-trim.jpg"}],"accessors":[{"bufferView":0,"componentType":5126,"count":24,"max":[4,0,0],"min":[-4,-8,-4.050000190734863],"type":"VEC3"},{"bufferView":1,"componentType":5126,"count":24,"type":"VEC3"},{"bufferView":2,"componentType":5126,"count":24,"type":"VEC2"},{"bufferView":3,"componentType":5123,"count":36,"type":"SCALAR"}],"bufferViews":[{"buffer":0,"byteLength":288,"byteOffset":0,"target":34962},{"buffer":0,"byteLength":288,"byteOffset":288,"target":34962},{"buffer":0,"byteLength":192,"byteOffset":576,"target":34962},{"buffer":0,"byteLength":72,"byteOffset":768,"target":34963}],"samplers":[{"magFilter":9729,"minFilter":9987}],"buffers":[{"byteLength":840,"uri":"SM_RC_Terrain_Path_Uphill_8x8x4.bin"}]}
