{"asset":{"generator":"Khronos glTF Blender I/O v4.5.47","version":"2.0"},"scene":0,"scenes":[{"name":"Scene","nodes":[0]}],"nodes":[{"extras":{"floors":4,"footprint":"square","enterable":0,"units":"meters","floor_height_m":4.0,"pivot":"Ground center; front -Y","roof_repaired_in":"v6"},"mesh":0,"name":"SM_RC_WA_MudHut_Square_4F_Setback_RoofFixed","rotation":[0.7071068286895752,0,0,0.7071068286895752]}],"materials":[{"doubleSided":true,"extras":{"darkangel_key":"material/trim"},"name":"RoyalDistrict_Trim","pbrMetallicRoughness":{"baseColorTexture":{"index":0},"metallicFactor":0,"roughnessFactor":0.8199999928474426}}],"meshes":[{"extras":{"darkangel_key":"mesh/0"},"name":"SM_RC_MudHut_Square_4F_Setback_FixedTemp","primitives":[{"attributes":{"POSITION":0,"NORMAL":1,"TEXCOORD_0":2},"indices":3,"material":0}]}],"textures":[{"sampler":0,"source":0}],"images":[{"uri":"mudhut-trim.png"}],"accessors":[{"bufferView":0,"componentType":5126,"count":2248,"max":[4.420000076293945,4.420000076293945,0],"min":[-4.420000076293945,-4.420000076293945,-18.270000457763672],"type":"VEC3"},{"bufferView":1,"componentType":5126,"count":2248,"type":"VEC3"},{"bufferView":2,"componentType":5126,"count":2248,"type":"VEC2"},{"bufferView":3,"componentType":5123,"count":3582,"type":"SCALAR"}],"bufferViews":[{"buffer":0,"byteLength":26976,"byteOffset":0,"target":34962},{"buffer":0,"byteLength":26976,"byteOffset":26976,"target":34962},{"buffer":0,"byteLength":17984,"byteOffset":53952,"target":34962},{"buffer":0,"byteLength":7164,"byteOffset":71936,"target":34963}],"samplers":[{"magFilter":9729,"minFilter":9987}],"buffers":[{"byteLength":79100,"uri":"SM_RC_MudHut_Square_4F_Setback.bin"}]}
