{"asset":{"generator":"Khronos glTF Blender I/O v4.5.47","version":"2.0"},"scene":0,"scenes":[{"name":"Scene","nodes":[0]}],"nodes":[{"extras":{"floors":2,"footprint":"square","enterable":0,"units":"meters","floor_height_m":4.0,"pivot":"Ground center; front -Y","roof_repaired_in":"v6"},"mesh":0,"name":"SM_RC_WA_MudHut_Square_2F_Overhang_RoofFixed","rotation":[0.7071068286895752,0,0,0.7071068286895752]}],"materials":[{"doubleSided":true,"extras":{"darkangel_key":"material/trim"},"name":"RoyalDistrict_Trim","pbrMetallicRoughness":{"baseColorTexture":{"index":0},"metallicFactor":0,"roughnessFactor":0.8199999928474426}}],"meshes":[{"extras":{"darkangel_key":"mesh/0"},"name":"SM_RC_MudHut_Square_2F_Overhang_FixedTemp","primitives":[{"attributes":{"POSITION":0,"NORMAL":1,"TEXCOORD_0":2},"indices":3,"material":0}]}],"textures":[{"sampler":0,"source":0}],"images":[{"uri":"mudhut-trim.png"}],"accessors":[{"bufferView":0,"componentType":5126,"count":1576,"max":[4.119999885559082,4.454999923706055,0],"min":[-4.119999885559082,-4.119999885559082,-10.270000457763672],"type":"VEC3"},{"bufferView":1,"componentType":5126,"count":1576,"type":"VEC3"},{"bufferView":2,"componentType":5126,"count":1576,"type":"VEC2"},{"bufferView":3,"componentType":5123,"count":2478,"type":"SCALAR"}],"bufferViews":[{"buffer":0,"byteLength":18912,"byteOffset":0,"target":34962},{"buffer":0,"byteLength":18912,"byteOffset":18912,"target":34962},{"buffer":0,"byteLength":12608,"byteOffset":37824,"target":34962},{"buffer":0,"byteLength":4956,"byteOffset":50432,"target":34963}],"samplers":[{"magFilter":9729,"minFilter":9987}],"buffers":[{"byteLength":55388,"uri":"SM_RC_MudHut_Square_2F_Overhang.bin"}]}
