{"asset":{"generator":"Khronos glTF Blender I/O v4.5.47","version":"2.0"},"scene":0,"scenes":[{"name":"Scene","nodes":[0]}],"nodes":[{"extras":{"floors":1,"footprint":"square","enterable":0,"units":"meters","floor_height_m":4.0,"pivot":"Ground center; front -Y","roof_repaired_in":"v6"},"mesh":0,"name":"SM_RC_WA_MudHut_Square_1F_RoofFixed","rotation":[0.7071068286895752,0,0,0.7071068286895752]}],"materials":[{"doubleSided":true,"extras":{"darkangel_key":"material/trim"},"name":"RoyalDistrict_Trim","pbrMetallicRoughness":{"baseColorTexture":{"index":0},"metallicFactor":0,"roughnessFactor":0.8199999928474426}}],"meshes":[{"extras":{"darkangel_key":"mesh/0"},"name":"SM_RC_MudHut_Square_1F_FixedTemp","primitives":[{"attributes":{"POSITION":0,"NORMAL":1,"TEXCOORD_0":2},"indices":3,"material":0}]}],"textures":[{"sampler":0,"source":0}],"images":[{"uri":"mudhut-trim.png"}],"accessors":[{"bufferView":0,"componentType":5126,"count":808,"max":[3.4200000762939453,3.4200000762939453,0],"min":[-3.4200000762939453,-3.4200000762939453,-6.269999980926514],"type":"VEC3"},{"bufferView":1,"componentType":5126,"count":808,"type":"VEC3"},{"bufferView":2,"componentType":5126,"count":808,"type":"VEC2"},{"bufferView":3,"componentType":5123,"count":1278,"type":"SCALAR"}],"bufferViews":[{"buffer":0,"byteLength":9696,"byteOffset":0,"target":34962},{"buffer":0,"byteLength":9696,"byteOffset":9696,"target":34962},{"buffer":0,"byteLength":6464,"byteOffset":19392,"target":34962},{"buffer":0,"byteLength":2556,"byteOffset":25856,"target":34963}],"samplers":[{"magFilter":9729,"minFilter":9987}],"buffers":[{"byteLength":28412,"uri":"SM_RC_MudHut_Square_1F.bin"}]}
